<svg xmlns="http://www.w3.org/2000/svg" xmlns:xlink="http://www.w3.org/1999/xlink" width="80" height="80" viewBox="0 0 80 80">
  <defs>
    <clipPath id="clip-path">
      <rect id="Rectángulo_467163" data-name="Rectángulo 467163" width="60.289" height="46.215" fill="#12263f"/>
    </clipPath>
  </defs>
  <g id="Grupo_1212452" data-name="Grupo 1212452" transform="translate(-175.889 -5521)">
    <rect id="Rectángulo_402006" data-name="Rectángulo 402006" width="80" height="80" rx="5" transform="translate(175.889 5521)" fill="#fe9841"/>
    <g id="Grupo_1213299" data-name="Grupo 1213299" transform="translate(185.744 5537.893)">
      <g id="Grupo_1213298" data-name="Grupo 1213298" clip-path="url(#clip-path)">
        <path id="Trazado_1276048" data-name="Trazado 1276048" d="M51.954,41.107l.031,2.086a1.023,1.023,0,0,0,1.046,1.033H97.163a1.035,1.035,0,0,0,1.056-1.064l0-33.127-47.2,0a1.013,1.013,0,0,1-1.05-1.01L49.983,3A2.922,2.922,0,0,1,53.011,0H97.185A2.874,2.874,0,0,1,100.2,2.831l.018,40.346a2.953,2.953,0,0,1-3.035,3.037H53.016a2.942,2.942,0,0,1-3.035-3l0-2.017a.96.96,0,0,1,.908-.993.932.932,0,0,1,1.065.9M98.2,8.04,98.222,3a1.041,1.041,0,0,0-1.058-1.01H53.028a.987.987,0,0,0-1.041,1.013l0,5.039Z" transform="translate(-39.926 -0.001)" fill="#12263f"/>
        <path id="Trazado_1276049" data-name="Trazado 1276049" d="M16.783,86.1l-7.344,0a2.124,2.124,0,0,1-2.184-2.024l-.036-5.2-5.2-.038A2.112,2.112,0,0,1,0,76.654L0,69.41a2.115,2.115,0,0,1,2.012-2.185l5.2-.033.037-5.2a2.089,2.089,0,0,1,2.179-2.008l7.251,0a2.1,2.1,0,0,1,2.179,2.011L18.9,67.2l5.2.006a2.195,2.195,0,0,1,2.017,2.212V76.65a2.18,2.18,0,0,1-2.2,2.209l-5.017.01-.037,5.2A2.125,2.125,0,0,1,16.783,86.1M7.224,76.847l.012-2.8a2.17,2.17,0,0,1,2.2-2.007l7.427,0,.021-10.055-7.645,0L9.236,67.2l3.821.011a.979.979,0,0,1,.988.92c.037.4-.236,1.06-.813,1.061l-11.228.024,0,7.636Zm9.648,2.016H13.057a1,1,0,0,1-.983-1.092.977.977,0,0,1,.99-.918H24.116V69.217l-5.211,0-.013,2.616a2.191,2.191,0,0,1-2.218,2.2l-7.422.017L9.232,84.1l7.647.006Z" transform="translate(0 -47.923)" fill="#12263f"/>
        <path id="Trazado_1276050" data-name="Trazado 1276050" d="M188.178,167.016l-17.129.012a.989.989,0,0,1-1.008-.924c-.038-.395.228-1.057.825-1.057l17.409,0c.533,0,.8.555.825.895a.951.951,0,0,1-.922,1.079" transform="translate(-135.858 -131.866)" fill="#12263f"/>
        <path id="Trazado_1276051" data-name="Trazado 1276051" d="M180.744,73.218a1.077,1.077,0,0,1,.091,1.444,1.045,1.045,0,0,1-1.485.046l-3.917-3.893a1.156,1.156,0,0,1,0-1.673l3.916-3.893a1.049,1.049,0,0,1,1.384-.048,1.033,1.033,0,0,1,.056,1.482l-3.279,3.3Z" transform="translate(-139.881 -51.905)" fill="#12263f"/>
        <path id="Trazado_1276052" data-name="Trazado 1276052" d="M236.789,74.661a1.075,1.075,0,0,1-1.441.087,1.033,1.033,0,0,1-.055-1.48l3.278-3.3-3.279-3.3a1.016,1.016,0,0,1,1.439-1.433l3.916,3.892a1.154,1.154,0,0,1,0,1.674Z" transform="translate(-187.766 -51.897)" fill="#12263f"/>
        <path id="Trazado_1276053" data-name="Trazado 1276053" d="M181.157,136.968l-10.115.015a.991.991,0,0,1-1-.918.967.967,0,0,1,.994-1.075l10.034,0a.961.961,0,0,1,1,.908.951.951,0,0,1-.91,1.072" transform="translate(-135.859 -107.853)" fill="#12263f"/>
        <path id="Trazado_1276054" data-name="Trazado 1276054" d="M216.157,196.968l-10.115.015a.991.991,0,0,1-1-.918.967.967,0,0,1,.994-1.075l10.034,0a.961.961,0,0,1,1,.908.951.951,0,0,1-.91,1.072" transform="translate(-163.823 -155.792)" fill="#12263f"/>
        <path id="Trazado_1276055" data-name="Trazado 1276055" d="M211.95,80.4a1,1,0,0,1-1.863-.748l2.083-4.158a.988.988,0,0,1,1.282-.436.95.95,0,0,1,.515,1.236Z" transform="translate(-167.82 -59.907)" fill="#12263f"/>
        <path id="Trazado_1276056" data-name="Trazado 1276056" d="M244.131,136.961l-3.092.017a.993.993,0,1,1,0-1.985l3.005,0a.958.958,0,0,1,.992.9.928.928,0,0,1-.9,1.065" transform="translate(-191.788 -107.856)" fill="#12263f"/>
        <path id="Trazado_1276057" data-name="Trazado 1276057" d="M174.131,196.961l-3.092.018a.993.993,0,1,1,0-1.985l3.005,0a.958.958,0,0,1,.992.9.928.928,0,0,1-.9,1.065" transform="translate(-135.859 -155.795)" fill="#12263f"/>
        <path id="Trazado_1276058" data-name="Trazado 1276058" d="M70.7,20.03a.981.981,0,0,1,1.244.527A.995.995,0,1,1,70.7,20.03" transform="translate(-55.964 -15.957)" fill="#12263f"/>
        <path id="Trazado_1276059" data-name="Trazado 1276059" d="M90.7,20.034a.979.979,0,0,1,1.243.525,1,1,0,1,1-1.243-.525" transform="translate(-71.943 -15.96)" fill="#12263f"/>
        <path id="Trazado_1276060" data-name="Trazado 1276060" d="M110.7,20.034a.979.979,0,0,1,1.242.526.995.995,0,1,1-1.242-.526" transform="translate(-87.923 -15.96)" fill="#12263f"/>
      </g>
    </g>
  </g>
</svg>
