<svg xmlns="http://www.w3.org/2000/svg" xmlns:xlink="http://www.w3.org/1999/xlink" width="150" height="150" viewBox="0 0 150 150">
  <defs>
    <clipPath id="clip-path">
      <rect id="Rectángulo_467176" data-name="Rectángulo 467176" width="81.41" height="81.437" fill="#33611c"/>
    </clipPath>
  </defs>
  <g id="Grupo_1213135" data-name="Grupo 1213135" transform="translate(-383.746 -8400)">
    <circle id="Elipse_13609" data-name="Elipse 13609" cx="75" cy="75" r="75" transform="translate(383.746 8400)" fill="#c0fea6"/>
    <g id="Grupo_1213321" data-name="Grupo 1213321" transform="translate(418.041 8434.281)">
      <g id="Grupo_1213320" data-name="Grupo 1213320" clip-path="url(#clip-path)">
        <path id="Trazado_1276168" data-name="Trazado 1276168" d="M42.011,31.524l30.749.085a6.242,6.242,0,0,1,5.961,6.124l.07,30.769a4.015,4.015,0,0,1,2.6,3.757,9.253,9.253,0,0,1-9.434,9.179l-44.46-.03a9.116,9.116,0,0,1-8.245-5.259l-4.434-.075-.655-1.749a1.931,1.931,0,0,0-1.8-.691,16.877,16.877,0,0,1-1.721.751l-5-4.988c.25-.634.834-1.289.857-1.881.056-1.489-1.355-1.861-2.431-2.165L3.92,58.2l1.9-.755A1.716,1.716,0,0,0,6.5,55.854l-.872-1.791,5.032-5.035,1.852.787a1.728,1.728,0,0,0,1.667-.718l.635-1.76,6.166-.07L20.948,44.7,3.717,44.633A3.829,3.829,0,0,1,.006,40.7L0,4.111A4.045,4.045,0,0,1,4.342,0L38.391.063a3.887,3.887,0,0,1,3.628,3.988l0,10.427,2.561,0,.07-3.96c.033-1.869,1.4-3.859,3.426-3.858l8.913,0a3.69,3.69,0,0,1,3.4,3.739l.025,4.048,5.212.054.029-4.1c.012-1.742,1.406-3.727,3.3-3.726l9.131,0c1.992,0,3.334,2.124,3.328,3.979l-.034,10.468a3.829,3.829,0,0,1-3.768,3.79l-8.427-.03a3.885,3.885,0,0,1-3.554-3.982l-.008-3.844-5.155.012-.077,4.058a3.842,3.842,0,0,1-3.909,3.8l-7.9,0A3.888,3.888,0,0,1,44.65,20.98l-.067-3.88H42.017ZM39.376,10.478l0-6.61a1.311,1.311,0,0,0-1.3-1.227l-34.139,0A1.241,1.241,0,0,0,2.647,3.922l-.019,6.566ZM56.544,22.371a1.45,1.45,0,0,0,1.219-1.243l.017-10.441a1.481,1.481,0,0,0-1.55-1.523l-7.641.025A1.328,1.328,0,0,0,47.3,10.438l0,10.7a1.35,1.35,0,0,0,1.32,1.215Zm20.894-.008a1.3,1.3,0,0,0,1.326-1.285l0-10.588a1.355,1.355,0,0,0-1.443-1.31H69.711a1.45,1.45,0,0,0-1.481,1.36l0,10.283a1.443,1.443,0,0,0,1.481,1.541ZM21.009,38.007a6.56,6.56,0,0,1,5.955-6.456l12.422,0V13.188L2.625,13.2l.007,27.447a1.361,1.361,0,0,0,1.436,1.39l16.94-.012Zm55.13,30.272-.008-30.6a4.086,4.086,0,0,0-3.675-3.563H27.493c-1.892.134-3.8,1.544-3.808,3.581L23.63,68.293Zm-66.7-.905-.522,1.515,2.315,2.341,1.446-.7c1,.837,2.426.94,3.466,1.644.412.279.361,1.294.817,1.365,2.585.4.443-1.305,2.408-4.032a7.84,7.84,0,0,1-7.136-12.674,7.967,7.967,0,0,1,8.745-2.559L21,49.939l-4.2-.051-.694,1.58a10.857,10.857,0,0,0-3.427,1.416l-1.433-.68L8.859,54.674c1.3,1.524-.251,2.392-.746,4.813l-1.492.6v3.241a6.058,6.058,0,0,0,1.5.592,15.317,15.317,0,0,0,1.324,3.453M20.976,57.119a5.357,5.357,0,0,0-6.706,1.33A5.242,5.242,0,0,0,21,66.256ZM65.668,78.672l-.034-5.139,7.881.007.023,5.123a6.458,6.458,0,0,0,5.2-6.564,1.291,1.291,0,0,0-1.441-1.158H22.423A1.275,1.275,0,0,0,21,72.291,6.6,6.6,0,0,0,27.514,78.8l27.615.027.066-5.291,7.811,0,.04,5.23a6.633,6.633,0,0,0,2.622-.1m-5.254.033-.1-2.583-2.539.027.06,2.6a6.817,6.817,0,0,0,2.579-.049m10.544-.048-.041-2.541-2.625.058a8.641,8.641,0,0,0,0,2.579,5.953,5.953,0,0,0,2.669-.1" transform="translate(0 0)" fill="#33611c"/>
        <path id="Trazado_1276169" data-name="Trazado 1276169" d="M52.348,69.92l-31.45.033,0-7.869,31.41,0Zm-2.7-2.594-.018-2.669-26.132,0v2.679Z" transform="translate(-15.581 -46.288)" fill="#33611c"/>
        <path id="Trazado_1276170" data-name="Trazado 1276170" d="M52.421,105.842l-31.363.013v-2.687l31.3,0a8.831,8.831,0,0,1,.06,2.676" transform="translate(-15.701 -76.922)" fill="#33611c"/>
        <path id="Trazado_1276171" data-name="Trazado 1276171" d="M33.889,147.132l-12.984.007-.029-2.649,13-.008Z" transform="translate(-15.566 -107.728)" fill="#33611c"/>
        <path id="Trazado_1276172" data-name="Trazado 1276172" d="M33.971,126.595l-12.966,0,0-2.575H33.97Z" transform="translate(-15.66 -92.472)" fill="#33611c"/>
        <path id="Trazado_1276173" data-name="Trazado 1276173" d="M147.69,173.4l-42.046-.009a2.648,2.648,0,0,1-2.545-2.808l.017-23.346a2.631,2.631,0,0,1,2.628-2.719l42.22.014a2.52,2.52,0,0,1,2.412,2.41L150.4,170.6a2.635,2.635,0,0,1-2.71,2.806m.11-2.586V147.156l-42.025,0,.01,23.686Z" transform="translate(-76.872 -107.758)" fill="#33611c"/>
        <path id="Trazado_1276174" data-name="Trazado 1276174" d="M43.862,23.483l-2.673,0,.007-2.562,2.655.019Z" transform="translate(-30.711 -15.598)" fill="#33611c"/>
        <path id="Trazado_1276175" data-name="Trazado 1276175" d="M64.607,23.531l-2.562,0,0-2.538,2.54,0Z" transform="translate(-46.261 -15.651)" fill="#33611c"/>
        <path id="Trazado_1276176" data-name="Trazado 1276176" d="M23.5,23.534l-2.555,0V21l2.537-.006Z" transform="translate(-15.614 -15.653)" fill="#33611c"/>
        <path id="Trazado_1276177" data-name="Trazado 1276177" d="M283.969,49.065l-5.112.014-.038-2.676,5.14-.031Z" transform="translate(-207.891 -34.576)" fill="#33611c"/>
        <path id="Trazado_1276178" data-name="Trazado 1276178" d="M284.079,69.813l-5.112.04,0-2.588,5.1-.007Z" transform="translate(-208 -50.148)" fill="#33611c"/>
        <path id="Trazado_1276179" data-name="Trazado 1276179" d="M201.353,49.056l-5.272.029.009-2.692h5.252Z" transform="translate(-146.2 -34.591)" fill="#33611c"/>
        <path id="Trazado_1276180" data-name="Trazado 1276180" d="M201.361,69.812l-5.264.016-.009-2.577,5.257,0Z" transform="translate(-146.206 -50.143)" fill="#33611c"/>
        <path id="Trazado_1276181" data-name="Trazado 1276181" d="M137.14,209.057l-13.078.027,0-2.7,13.076.013Z" transform="translate(-92.499 -153.886)" fill="#33611c"/>
        <path id="Trazado_1276182" data-name="Trazado 1276182" d="M137.133,167.867l-13.077-.006v-2.655l13.076.022Z" transform="translate(-92.498 -123.18)" fill="#33611c"/>
        <path id="Trazado_1276183" data-name="Trazado 1276183" d="M219.545,187.942l-2.567-.508,2.6-13.092,2.562.525Z" transform="translate(-161.782 -129.991)" fill="#33611c"/>
        <path id="Trazado_1276184" data-name="Trazado 1276184" d="M137.171,188.516l-13.089.005,0-2.58,13.054,0Z" transform="translate(-92.517 -138.639)" fill="#33611c"/>
        <path id="Trazado_1276185" data-name="Trazado 1276185" d="M136.965,229.815l-12.945.006a8.079,8.079,0,0,1-.1-2.629l13.061.022Z" transform="translate(-92.356 -169.397)" fill="#33611c"/>
        <path id="Trazado_1276186" data-name="Trazado 1276186" d="M187.495,187.145l2.938,3.079-1.833,1.842-4.853-4.809,4.814-4.845,1.865,1.8Z" transform="translate(-137.003 -136.008)" fill="#33611c"/>
        <path id="Trazado_1276187" data-name="Trazado 1276187" d="M244.057,190.068l3.029-3.027-3.036-3.049,1.883-1.879,4.84,4.846-4.891,4.9Z" transform="translate(-181.967 -135.786)" fill="#33611c"/>
      </g>
    </g>
  </g>
</svg>
